# xmcd
#
# Track frame offsets: 
#        150
#        8953
#        21596
#        29059
#        35584
#        43143
#        52578
#        60356
#        76144
#        85711
#        96811
#        111459
#        121034
#        127854
#        136579
#        151222
#        164384
#        171592
#        183625
#        193849
#        203279
#        216959
#        225424
#        245697
#        262095
#        275828
#        284728
#
# Disc length: 3846 seconds
#
# Revision: 0
# Processed by: cddbd v1.5.2PL0 Copyright (c) Steve Scherf et al.
# Submitted via: ExactAudioCopy v0.99pb5
#
DISCID=800f041b
DTITLE=Elvis Presley  - FTD 69 - Wild In The Country  
DYEAR=1900
DGENRE=
TTITLE0=Wild In The Country
TTITLE1=Lonely Man
TTITLE2=I Slipped, I Stumbled, I Fell
TTITLE3=In My Way
TTITLE4=Forget Me Never
TTITLE5=Lonely Man (Solo Version)
TTITLE6=I Slipped, I Stumbled, I Fell (Low Key Version)
TTITLE7=Lonely Man (Take 1)
TTITLE8=Wild In The Country (Takes 1-2)
TTITLE9=Wild In The Country (Takes 10-11)
TTITLE10=I Slipped, I Stumbled, I Fell (High Key Version, Takes 1-3)
TTITLE11=Lonely Man (Solo Version, Take 1)
TTITLE12=In My Way (Take 1)
TTITLE13=Forget Me Never (Takes 2, 1)
TTITLE14=Lonely Man (Take 4)
TTITLE15=Lonely Man (Solo Version, Takes 2-3)
TTITLE16=In My Way (Take 2)
TTITLE17=In My Way (Takes 4-5, Splice Of Takes 6 and 8)
TTITLE18=Wild In The Country (Takes 12-13)
TTITLE19=Wild In The Country (Take 14)
TTITLE20=I Slipped, I Stumbled, I Fell (High Key Version, Takes 7-9)
TTITLE21=I Slipped, I Stumbled, I Fell (High Key Version, Take 11)
TTITLE22=Lonely Man (Takes 6-8)
TTITLE23=Lonely Man (Takes 11-12)
TTITLE24=I Slipped, I Stumbled, I Fell (Low Key Version, Takes 14-16)
TTITLE25=Wild In The Country (Take 16)
TTITLE26=Husky Dusky Day
EXTD=
EXTT0=
EXTT1=
EXTT2=
EXTT3=
EXTT4=
EXTT5=
EXTT6=
EXTT7=
EXTT8=
EXTT9=
EXTT10=
EXTT11=
EXTT12=
EXTT13=
EXTT14=
EXTT15=
EXTT16=
EXTT17=
EXTT18=
EXTT19=
EXTT20=
EXTT21=
EXTT22=
EXTT23=
EXTT24=
EXTT25=
EXTT26=
PLAYORDER=
